<mxfile host="app.diagrams.net" agent="Mozilla/5.0 (Windows NT 10.0; Win64; x64) AppleWebKit/537.36 (KHTML, like Gecko) Chrome/130.0.0.0 Safari/537.36 Edg/130.0.0.0" version="24.8.0">
  <diagram id="C5RBs43oDa-KdzZeNtuy" name="Page-1">
    <mxGraphModel dx="2206" dy="1928" grid="1" gridSize="10" guides="1" tooltips="1" connect="1" arrows="1" fold="1" page="1" pageScale="1" pageWidth="827" pageHeight="1169" math="0" shadow="0">
      <root>
        <mxCell id="WIyWlLk6GJQsqaUBKTNV-0" />
        <mxCell id="WIyWlLk6GJQsqaUBKTNV-1" parent="WIyWlLk6GJQsqaUBKTNV-0" />
        <mxCell id="JLzh3muklTevtN_WwJKW-5" value="" style="edgeStyle=orthogonalEdgeStyle;rounded=0;orthogonalLoop=1;jettySize=auto;html=1;exitX=0;exitY=0.5;exitDx=0;exitDy=0;labelBackgroundColor=none;fontColor=default;" parent="WIyWlLk6GJQsqaUBKTNV-1" source="JLzh3muklTevtN_WwJKW-44" target="JLzh3muklTevtN_WwJKW-7" edge="1">
          <mxGeometry relative="1" as="geometry">
            <mxPoint x="249" y="280" as="sourcePoint" />
            <mxPoint x="144" y="350" as="targetPoint" />
          </mxGeometry>
        </mxCell>
        <mxCell id="JLzh3muklTevtN_WwJKW-7" value="GetUpdateRegions" style="rounded=0;whiteSpace=wrap;html=1;labelBackgroundColor=none;" parent="WIyWlLk6GJQsqaUBKTNV-1" vertex="1">
          <mxGeometry x="10" y="250" width="150" height="50" as="geometry" />
        </mxCell>
        <mxCell id="EhMyjCA0RfJh-dZU2uRC-42" style="edgeStyle=orthogonalEdgeStyle;rounded=0;orthogonalLoop=1;jettySize=auto;html=1;labelBackgroundColor=none;fontColor=default;entryX=1;entryY=0.25;entryDx=0;entryDy=0;" parent="WIyWlLk6GJQsqaUBKTNV-1" source="JLzh3muklTevtN_WwJKW-14" target="JLzh3muklTevtN_WwJKW-45" edge="1">
          <mxGeometry relative="1" as="geometry">
            <Array as="points" />
          </mxGeometry>
        </mxCell>
        <mxCell id="JLzh3muklTevtN_WwJKW-14" value="&lt;font style=&quot;font-size: 14px;&quot;&gt;GetTileCacheUpdateRegions&lt;/font&gt;" style="rounded=0;whiteSpace=wrap;html=1;labelBackgroundColor=none;" parent="WIyWlLk6GJQsqaUBKTNV-1" vertex="1">
          <mxGeometry x="1030" y="240" width="190" height="70" as="geometry" />
        </mxCell>
        <mxCell id="JLzh3muklTevtN_WwJKW-25" style="edgeStyle=orthogonalEdgeStyle;rounded=0;orthogonalLoop=1;jettySize=auto;html=1;exitX=0.5;exitY=1;exitDx=0;exitDy=0;entryX=0.5;entryY=0;entryDx=0;entryDy=0;labelBackgroundColor=none;fontColor=default;" parent="WIyWlLk6GJQsqaUBKTNV-1" source="JLzh3muklTevtN_WwJKW-20" target="EhMyjCA0RfJh-dZU2uRC-92" edge="1">
          <mxGeometry relative="1" as="geometry">
            <mxPoint x="-13" y="989.5" as="targetPoint" />
          </mxGeometry>
        </mxCell>
        <mxCell id="EhMyjCA0RfJh-dZU2uRC-99" style="edgeStyle=orthogonalEdgeStyle;rounded=0;orthogonalLoop=1;jettySize=auto;html=1;entryX=0.5;entryY=0;entryDx=0;entryDy=0;" parent="WIyWlLk6GJQsqaUBKTNV-1" source="JLzh3muklTevtN_WwJKW-20" target="EhMyjCA0RfJh-dZU2uRC-100" edge="1">
          <mxGeometry relative="1" as="geometry">
            <mxPoint x="378.99999999999955" y="870" as="targetPoint" />
          </mxGeometry>
        </mxCell>
        <mxCell id="JLzh3muklTevtN_WwJKW-20" value="Region In Mem Cache?" style="rhombus;whiteSpace=wrap;html=1;labelBackgroundColor=none;" parent="WIyWlLk6GJQsqaUBKTNV-1" vertex="1">
          <mxGeometry y="685" width="164" height="80" as="geometry" />
        </mxCell>
        <mxCell id="JLzh3muklTevtN_WwJKW-27" value="&lt;font style=&quot;font-size: 14px;&quot;&gt;No&lt;/font&gt;" style="text;html=1;align=center;verticalAlign=middle;resizable=0;points=[];autosize=1;strokeColor=none;fillColor=none;labelBackgroundColor=none;" parent="WIyWlLk6GJQsqaUBKTNV-1" vertex="1">
          <mxGeometry x="188" y="679.5" width="40" height="30" as="geometry" />
        </mxCell>
        <mxCell id="JLzh3muklTevtN_WwJKW-30" value="" style="edgeStyle=orthogonalEdgeStyle;rounded=0;orthogonalLoop=1;jettySize=auto;html=1;labelBackgroundColor=none;fontColor=default;exitX=0.5;exitY=1;exitDx=0;exitDy=0;" parent="WIyWlLk6GJQsqaUBKTNV-1" source="EhMyjCA0RfJh-dZU2uRC-91" target="JLzh3muklTevtN_WwJKW-29" edge="1">
          <mxGeometry relative="1" as="geometry">
            <mxPoint x="-541" y="830" as="sourcePoint" />
          </mxGeometry>
        </mxCell>
        <mxCell id="JLzh3muklTevtN_WwJKW-33" value="" style="edgeStyle=orthogonalEdgeStyle;rounded=0;orthogonalLoop=1;jettySize=auto;html=1;labelBackgroundColor=none;fontColor=default;exitX=1;exitY=0.5;exitDx=0;exitDy=0;" parent="WIyWlLk6GJQsqaUBKTNV-1" source="EhMyjCA0RfJh-dZU2uRC-91" edge="1">
          <mxGeometry relative="1" as="geometry">
            <mxPoint x="-456" y="830" as="sourcePoint" />
            <mxPoint x="-413" y="846" as="targetPoint" />
          </mxGeometry>
        </mxCell>
        <mxCell id="JLzh3muklTevtN_WwJKW-29" value="Render must wait until copytexture finishes" style="whiteSpace=wrap;html=1;labelBackgroundColor=none;" parent="WIyWlLk6GJQsqaUBKTNV-1" vertex="1">
          <mxGeometry x="-606.5" y="786" width="120" height="60" as="geometry" />
        </mxCell>
        <mxCell id="JLzh3muklTevtN_WwJKW-31" value="&lt;font style=&quot;font-size: 14px;&quot;&gt;Yes&lt;/font&gt;" style="text;html=1;align=center;verticalAlign=middle;resizable=0;points=[];autosize=1;strokeColor=none;fillColor=none;labelBackgroundColor=none;" parent="WIyWlLk6GJQsqaUBKTNV-1" vertex="1">
          <mxGeometry x="88" y="839.5" width="50" height="30" as="geometry" />
        </mxCell>
        <mxCell id="EhMyjCA0RfJh-dZU2uRC-122" style="edgeStyle=orthogonalEdgeStyle;rounded=0;orthogonalLoop=1;jettySize=auto;html=1;" parent="WIyWlLk6GJQsqaUBKTNV-1" source="JLzh3muklTevtN_WwJKW-42" target="EhMyjCA0RfJh-dZU2uRC-121" edge="1">
          <mxGeometry relative="1" as="geometry" />
        </mxCell>
        <mxCell id="JLzh3muklTevtN_WwJKW-42" value="Player Moves" style="rounded=0;whiteSpace=wrap;html=1;labelBackgroundColor=none;" parent="WIyWlLk6GJQsqaUBKTNV-1" vertex="1">
          <mxGeometry x="77" y="30" width="660" height="50" as="geometry" />
        </mxCell>
        <mxCell id="EhMyjCA0RfJh-dZU2uRC-2" style="edgeStyle=orthogonalEdgeStyle;rounded=0;orthogonalLoop=1;jettySize=auto;html=1;entryX=0.5;entryY=0;entryDx=0;entryDy=0;labelBackgroundColor=none;fontColor=default;exitX=1;exitY=0.5;exitDx=0;exitDy=0;" parent="WIyWlLk6GJQsqaUBKTNV-1" source="EhMyjCA0RfJh-dZU2uRC-121" target="JLzh3muklTevtN_WwJKW-14" edge="1">
          <mxGeometry relative="1" as="geometry" />
        </mxCell>
        <mxCell id="JLzh3muklTevtN_WwJKW-44" value="Clipmap Stack Needs Update" style="rounded=0;whiteSpace=wrap;html=1;labelBackgroundColor=none;" parent="WIyWlLk6GJQsqaUBKTNV-1" vertex="1">
          <mxGeometry x="242" y="120" width="113" height="60" as="geometry" />
        </mxCell>
        <mxCell id="EhMyjCA0RfJh-dZU2uRC-10" style="edgeStyle=orthogonalEdgeStyle;rounded=0;orthogonalLoop=1;jettySize=auto;html=1;entryX=0.5;entryY=0;entryDx=0;entryDy=0;exitX=0;exitY=0.5;exitDx=0;exitDy=0;labelBackgroundColor=none;fontColor=default;" parent="WIyWlLk6GJQsqaUBKTNV-1" source="JLzh3muklTevtN_WwJKW-46" target="JLzh3muklTevtN_WwJKW-20" edge="1">
          <mxGeometry relative="1" as="geometry">
            <mxPoint x="710" y="430" as="sourcePoint" />
          </mxGeometry>
        </mxCell>
        <mxCell id="JLzh3muklTevtN_WwJKW-46" value="CopyTexture Job Proprity Queue&amp;nbsp;&lt;div&gt;(coarse &amp;gt; fine)&lt;/div&gt;&lt;div&gt;(mem to vram&lt;span style=&quot;background-color: initial;&quot;&gt;)&lt;/span&gt;&lt;/div&gt;" style="swimlane;whiteSpace=wrap;html=1;startSize=80;swimlaneLine=1;labelBackgroundColor=none;" parent="WIyWlLk6GJQsqaUBKTNV-1" vertex="1">
          <mxGeometry x="690" y="320" width="91.5" height="280" as="geometry" />
        </mxCell>
        <mxCell id="EhMyjCA0RfJh-dZU2uRC-47" value="Coarse&lt;div&gt;&lt;br&gt;&lt;/div&gt;&lt;div&gt;&lt;br&gt;&lt;/div&gt;&lt;div&gt;&lt;br&gt;&lt;/div&gt;&lt;div&gt;|&lt;/div&gt;&lt;div&gt;V&lt;/div&gt;&lt;div&gt;&lt;br&gt;&lt;/div&gt;&lt;div&gt;&lt;br&gt;&lt;/div&gt;&lt;div&gt;&lt;br&gt;&lt;/div&gt;&lt;div&gt;Fine&lt;/div&gt;" style="text;html=1;align=center;verticalAlign=middle;resizable=0;points=[];autosize=1;strokeColor=none;fillColor=none;labelBackgroundColor=none;" parent="JLzh3muklTevtN_WwJKW-46" vertex="1">
          <mxGeometry x="15.75" y="100" width="60" height="160" as="geometry" />
        </mxCell>
        <mxCell id="EhMyjCA0RfJh-dZU2uRC-7" value="" style="edgeStyle=orthogonalEdgeStyle;rounded=0;orthogonalLoop=1;jettySize=auto;html=1;entryX=0.5;entryY=0;entryDx=0;entryDy=0;labelBackgroundColor=none;fontColor=default;" parent="WIyWlLk6GJQsqaUBKTNV-1" source="JLzh3muklTevtN_WwJKW-7" target="EhMyjCA0RfJh-dZU2uRC-8" edge="1">
          <mxGeometry relative="1" as="geometry">
            <mxPoint x="11" y="390" as="targetPoint" />
            <mxPoint x="10" y="275" as="sourcePoint" />
          </mxGeometry>
        </mxCell>
        <mxCell id="EhMyjCA0RfJh-dZU2uRC-9" style="edgeStyle=orthogonalEdgeStyle;rounded=0;orthogonalLoop=1;jettySize=auto;html=1;entryX=0;entryY=0.25;entryDx=0;entryDy=0;exitX=1;exitY=0.5;exitDx=0;exitDy=0;labelBackgroundColor=none;fontColor=default;" parent="WIyWlLk6GJQsqaUBKTNV-1" source="EhMyjCA0RfJh-dZU2uRC-15" target="JLzh3muklTevtN_WwJKW-46" edge="1">
          <mxGeometry relative="1" as="geometry">
            <mxPoint x="360" y="390" as="targetPoint" />
            <mxPoint x="640" y="390" as="sourcePoint" />
          </mxGeometry>
        </mxCell>
        <mxCell id="EhMyjCA0RfJh-dZU2uRC-8" value="Process and Divide" style="rounded=0;whiteSpace=wrap;html=1;labelBackgroundColor=none;" parent="WIyWlLk6GJQsqaUBKTNV-1" vertex="1">
          <mxGeometry x="25" y="360" width="120" height="60" as="geometry" />
        </mxCell>
        <mxCell id="EhMyjCA0RfJh-dZU2uRC-16" value="" style="edgeStyle=orthogonalEdgeStyle;rounded=0;orthogonalLoop=1;jettySize=auto;html=1;entryX=0;entryY=0.5;entryDx=0;entryDy=0;labelBackgroundColor=none;fontColor=default;" parent="WIyWlLk6GJQsqaUBKTNV-1" source="EhMyjCA0RfJh-dZU2uRC-8" target="EhMyjCA0RfJh-dZU2uRC-116" edge="1">
          <mxGeometry relative="1" as="geometry">
            <mxPoint x="709" y="390" as="targetPoint" />
            <mxPoint x="274" y="390" as="sourcePoint" />
          </mxGeometry>
        </mxCell>
        <mxCell id="EhMyjCA0RfJh-dZU2uRC-15" value="&amp;nbsp;Optional:&amp;nbsp;&lt;div&gt;Remove Overlapped (Region) Pending Job when Received Request&lt;/div&gt;" style="rounded=0;whiteSpace=wrap;html=1;labelBackgroundColor=none;dashed=1;dashPattern=12 12;" parent="WIyWlLk6GJQsqaUBKTNV-1" vertex="1">
          <mxGeometry x="520" y="350" width="120" height="80" as="geometry" />
        </mxCell>
        <mxCell id="EhMyjCA0RfJh-dZU2uRC-20" value="&lt;font style=&quot;font-size: 14px;&quot;&gt;要考虑如何避免延迟后的老数据请求覆写更新，&lt;/font&gt;&lt;div style=&quot;font-size: 14px;&quot;&gt;&lt;font style=&quot;font-size: 14px;&quot;&gt;也许每次 push 上锁遍历检查覆盖情况？&lt;/font&gt;&lt;/div&gt;" style="text;html=1;align=center;verticalAlign=middle;resizable=0;points=[];autosize=1;strokeColor=none;fillColor=none;labelBackgroundColor=none;" parent="WIyWlLk6GJQsqaUBKTNV-1" vertex="1">
          <mxGeometry x="355" y="285" width="320" height="50" as="geometry" />
        </mxCell>
        <mxCell id="EhMyjCA0RfJh-dZU2uRC-25" value="&lt;font style=&quot;font-size: 14px;&quot;&gt;Yes&lt;/font&gt;" style="text;html=1;align=center;verticalAlign=middle;resizable=0;points=[];autosize=1;strokeColor=none;fillColor=none;labelBackgroundColor=none;" parent="WIyWlLk6GJQsqaUBKTNV-1" vertex="1">
          <mxGeometry x="-528" y="830" width="50" height="30" as="geometry" />
        </mxCell>
        <mxCell id="EhMyjCA0RfJh-dZU2uRC-69" value="" style="swimlane;startSize=0;labelBackgroundColor=none;" parent="WIyWlLk6GJQsqaUBKTNV-1" vertex="1">
          <mxGeometry x="920" y="459" width="630" height="891" as="geometry" />
        </mxCell>
        <mxCell id="EhMyjCA0RfJh-dZU2uRC-89" value="&lt;font style=&quot;font-size: 14px;&quot;&gt;Cache 跟不上 mip 更新速度的话会导致来回重复加载&lt;/font&gt;" style="text;html=1;align=center;verticalAlign=middle;resizable=0;points=[];autosize=1;strokeColor=none;fillColor=none;labelBackgroundColor=none;" parent="EhMyjCA0RfJh-dZU2uRC-69" vertex="1">
          <mxGeometry x="230" y="126" width="350" height="30" as="geometry" />
        </mxCell>
        <mxCell id="EhMyjCA0RfJh-dZU2uRC-98" value="GC(LRU)" style="rounded=0;whiteSpace=wrap;html=1;" parent="EhMyjCA0RfJh-dZU2uRC-69" vertex="1">
          <mxGeometry x="480" y="491" width="106" height="50" as="geometry" />
        </mxCell>
        <mxCell id="EhMyjCA0RfJh-dZU2uRC-43" value="LoadTexture&lt;br&gt;(AsyncFileReadManager)" style="rounded=0;whiteSpace=wrap;html=1;labelBackgroundColor=none;" parent="EhMyjCA0RfJh-dZU2uRC-69" vertex="1">
          <mxGeometry x="315" y="385.5" width="180" height="90" as="geometry" />
        </mxCell>
        <mxCell id="EhMyjCA0RfJh-dZU2uRC-105" value="Tile Storage&lt;br&gt;Array of Texture2D?" style="rounded=0;whiteSpace=wrap;html=1;" parent="EhMyjCA0RfJh-dZU2uRC-69" vertex="1">
          <mxGeometry x="330" y="475.5" width="150" height="94.5" as="geometry" />
        </mxCell>
        <mxCell id="EhMyjCA0RfJh-dZU2uRC-70" value="&lt;font style=&quot;font-size: 14px;&quot;&gt;TileSize&amp;nbsp; &amp;gt;&amp;nbsp; GridUpdateSize&lt;/font&gt;" style="text;html=1;align=center;verticalAlign=middle;resizable=0;points=[];autosize=1;strokeColor=none;fillColor=none;labelBackgroundColor=none;" parent="WIyWlLk6GJQsqaUBKTNV-1" vertex="1">
          <mxGeometry x="1380" y="70" width="200" height="30" as="geometry" />
        </mxCell>
        <mxCell id="EhMyjCA0RfJh-dZU2uRC-73" value="Update Desc&#xa;" style="swimlane;startSize=30;labelBackgroundColor=none;" parent="WIyWlLk6GJQsqaUBKTNV-1" vertex="1">
          <mxGeometry x="1380" y="100" width="200" height="200" as="geometry" />
        </mxCell>
        <mxCell id="EhMyjCA0RfJh-dZU2uRC-74" value="UpdateSize&lt;br style=&quot;padding: 0px; margin: 0px;&quot;&gt;AreaSize" style="text;html=1;align=center;verticalAlign=middle;resizable=0;points=[];autosize=1;strokeColor=none;fillColor=none;labelBackgroundColor=none;" parent="EhMyjCA0RfJh-dZU2uRC-73" vertex="1">
          <mxGeometry x="14.5" y="47.5" width="90" height="40" as="geometry" />
        </mxCell>
        <mxCell id="EhMyjCA0RfJh-dZU2uRC-79" value="&lt;span style=&quot;font-size: 14px;&quot;&gt;Add a flag for each layer: if update touching safe region, setmax-1&amp;nbsp;&lt;/span&gt;" style="text;html=1;align=center;verticalAlign=middle;resizable=0;points=[];autosize=1;strokeColor=none;fillColor=none;labelBackgroundColor=none;" parent="WIyWlLk6GJQsqaUBKTNV-1" vertex="1">
          <mxGeometry x="-10" y="1280" width="440" height="30" as="geometry" />
        </mxCell>
        <mxCell id="EhMyjCA0RfJh-dZU2uRC-82" value="Check CopyTecture Order" style="text;html=1;align=center;verticalAlign=middle;resizable=0;points=[];autosize=1;strokeColor=none;fillColor=none;labelBackgroundColor=none;" parent="WIyWlLk6GJQsqaUBKTNV-1" vertex="1">
          <mxGeometry x="113" y="1320" width="160" height="30" as="geometry" />
        </mxCell>
        <mxCell id="EhMyjCA0RfJh-dZU2uRC-83" value="&lt;span style=&quot;font-size: 14px;&quot;&gt;CopyTexture 和 Rendering 是顺序执行的话其实就不用判断，直接调用&lt;/span&gt;" style="text;html=1;align=center;verticalAlign=middle;resizable=0;points=[];autosize=1;strokeColor=none;fillColor=none;labelBackgroundColor=none;" parent="WIyWlLk6GJQsqaUBKTNV-1" vertex="1">
          <mxGeometry x="-710" y="720" width="460" height="30" as="geometry" />
        </mxCell>
        <mxCell id="EhMyjCA0RfJh-dZU2uRC-85" value="&lt;font style=&quot;font-size: 14px;&quot;&gt;Multithreading?&lt;/font&gt;" style="text;html=1;align=center;verticalAlign=middle;resizable=0;points=[];autosize=1;strokeColor=none;fillColor=none;labelBackgroundColor=none;" parent="WIyWlLk6GJQsqaUBKTNV-1" vertex="1">
          <mxGeometry x="430" y="470" width="120" height="30" as="geometry" />
        </mxCell>
        <mxCell id="EhMyjCA0RfJh-dZU2uRC-87" value="Job" style="swimlane;whiteSpace=wrap;html=1;labelBackgroundColor=none;" parent="WIyWlLk6GJQsqaUBKTNV-1" vertex="1">
          <mxGeometry x="827" y="-110" width="280" height="110" as="geometry" />
        </mxCell>
        <mxCell id="EhMyjCA0RfJh-dZU2uRC-86" value="an arry bind with center displacement?" style="text;html=1;align=center;verticalAlign=middle;resizable=0;points=[];autosize=1;strokeColor=none;fillColor=none;labelBackgroundColor=none;" parent="EhMyjCA0RfJh-dZU2uRC-87" vertex="1">
          <mxGeometry x="25" y="70" width="230" height="30" as="geometry" />
        </mxCell>
        <mxCell id="EhMyjCA0RfJh-dZU2uRC-88" value="" style="shape=flexArrow;endArrow=classic;startArrow=classic;html=1;rounded=0;exitX=1;exitY=0;exitDx=0;exitDy=0;entryX=0;entryY=1;entryDx=0;entryDy=0;labelBackgroundColor=none;fontColor=default;" parent="WIyWlLk6GJQsqaUBKTNV-1" source="JLzh3muklTevtN_WwJKW-46" target="EhMyjCA0RfJh-dZU2uRC-87" edge="1">
          <mxGeometry width="100" height="100" relative="1" as="geometry">
            <mxPoint x="670" y="500" as="sourcePoint" />
            <mxPoint x="770" y="400" as="targetPoint" />
          </mxGeometry>
        </mxCell>
        <mxCell id="EhMyjCA0RfJh-dZU2uRC-91" value="Is Updated Region within&lt;div&gt;Effective Size?&lt;/div&gt;" style="rhombus;whiteSpace=wrap;html=1;labelBackgroundColor=none;" parent="WIyWlLk6GJQsqaUBKTNV-1" vertex="1">
          <mxGeometry x="-643" y="566" width="193" height="130" as="geometry" />
        </mxCell>
        <mxCell id="EhMyjCA0RfJh-dZU2uRC-92" value="&lt;div&gt;Copytexture&amp;nbsp;&lt;br&gt;&lt;/div&gt;" style="whiteSpace=wrap;html=1;labelBackgroundColor=none;" parent="WIyWlLk6GJQsqaUBKTNV-1" vertex="1">
          <mxGeometry x="22" y="1189.5" width="120" height="60" as="geometry" />
        </mxCell>
        <mxCell id="EhMyjCA0RfJh-dZU2uRC-95" style="edgeStyle=orthogonalEdgeStyle;rounded=0;orthogonalLoop=1;jettySize=auto;html=1;entryX=0.5;entryY=0;entryDx=0;entryDy=0;" parent="WIyWlLk6GJQsqaUBKTNV-1" source="EhMyjCA0RfJh-dZU2uRC-94" target="EhMyjCA0RfJh-dZU2uRC-91" edge="1">
          <mxGeometry relative="1" as="geometry">
            <mxPoint x="-433" y="486" as="targetPoint" />
          </mxGeometry>
        </mxCell>
        <mxCell id="EhMyjCA0RfJh-dZU2uRC-94" value="Render" style="rounded=0;whiteSpace=wrap;html=1;" parent="WIyWlLk6GJQsqaUBKTNV-1" vertex="1">
          <mxGeometry x="-606.5" y="40" width="120" height="50" as="geometry" />
        </mxCell>
        <mxCell id="EhMyjCA0RfJh-dZU2uRC-102" style="edgeStyle=orthogonalEdgeStyle;rounded=0;orthogonalLoop=1;jettySize=auto;html=1;entryX=0.5;entryY=0;entryDx=0;entryDy=0;" parent="WIyWlLk6GJQsqaUBKTNV-1" source="EhMyjCA0RfJh-dZU2uRC-100" target="EhMyjCA0RfJh-dZU2uRC-103" edge="1">
          <mxGeometry relative="1" as="geometry">
            <mxPoint x="351.49999999999955" y="1020" as="targetPoint" />
          </mxGeometry>
        </mxCell>
        <mxCell id="EhMyjCA0RfJh-dZU2uRC-100" value="Wait for Execution Timer&lt;br&gt;(Signal?Coroutine?)" style="rounded=0;whiteSpace=wrap;html=1;" parent="WIyWlLk6GJQsqaUBKTNV-1" vertex="1">
          <mxGeometry x="269" y="890" width="165" height="60" as="geometry" />
        </mxCell>
        <mxCell id="EhMyjCA0RfJh-dZU2uRC-109" style="edgeStyle=orthogonalEdgeStyle;rounded=0;orthogonalLoop=1;jettySize=auto;html=1;entryX=1;entryY=0.25;entryDx=0;entryDy=0;exitX=1;exitY=0.5;exitDx=0;exitDy=0;" parent="WIyWlLk6GJQsqaUBKTNV-1" source="EhMyjCA0RfJh-dZU2uRC-103" target="JLzh3muklTevtN_WwJKW-46" edge="1">
          <mxGeometry relative="1" as="geometry">
            <Array as="points">
              <mxPoint x="840" y="1160" />
              <mxPoint x="840" y="390" />
            </Array>
          </mxGeometry>
        </mxCell>
        <mxCell id="EhMyjCA0RfJh-dZU2uRC-103" value="Region In Mem Cache?" style="rhombus;whiteSpace=wrap;html=1;labelBackgroundColor=none;" parent="WIyWlLk6GJQsqaUBKTNV-1" vertex="1">
          <mxGeometry x="269" y="1120" width="164" height="80" as="geometry" />
        </mxCell>
        <mxCell id="JLzh3muklTevtN_WwJKW-45" value="Async Read Job Priority Queue&lt;div&gt;(coarse &amp;gt; fine)&lt;br&gt;&lt;div&gt;(disk to mem)&lt;/div&gt;&lt;/div&gt;" style="swimlane;whiteSpace=wrap;html=1;startSize=70;labelBackgroundColor=none;" parent="WIyWlLk6GJQsqaUBKTNV-1" vertex="1">
          <mxGeometry x="993.5" y="650" width="88.5" height="300" as="geometry" />
        </mxCell>
        <mxCell id="EhMyjCA0RfJh-dZU2uRC-12" value="Coarse&lt;div&gt;&lt;br&gt;&lt;/div&gt;&lt;div&gt;&lt;br&gt;&lt;/div&gt;&lt;div&gt;&lt;br&gt;&lt;/div&gt;&lt;div&gt;|&lt;/div&gt;&lt;div&gt;V&lt;/div&gt;&lt;div&gt;&lt;br&gt;&lt;/div&gt;&lt;div&gt;&lt;br&gt;&lt;/div&gt;&lt;div&gt;&lt;br&gt;&lt;/div&gt;&lt;div&gt;Fine&lt;/div&gt;" style="text;html=1;align=center;verticalAlign=middle;resizable=0;points=[];autosize=1;strokeColor=none;fillColor=none;labelBackgroundColor=none;" parent="JLzh3muklTevtN_WwJKW-45" vertex="1">
          <mxGeometry x="15.75" y="90" width="60" height="160" as="geometry" />
        </mxCell>
        <mxCell id="EhMyjCA0RfJh-dZU2uRC-35" style="edgeStyle=orthogonalEdgeStyle;rounded=0;orthogonalLoop=1;jettySize=auto;html=1;entryX=0.5;entryY=0;entryDx=0;entryDy=0;labelBackgroundColor=none;fontColor=default;" parent="WIyWlLk6GJQsqaUBKTNV-1" source="JLzh3muklTevtN_WwJKW-45" target="EhMyjCA0RfJh-dZU2uRC-43" edge="1">
          <mxGeometry relative="1" as="geometry">
            <mxPoint x="1148.5" y="841" as="targetPoint" />
          </mxGeometry>
        </mxCell>
        <mxCell id="EhMyjCA0RfJh-dZU2uRC-107" style="edgeStyle=orthogonalEdgeStyle;rounded=0;orthogonalLoop=1;jettySize=auto;html=1;entryX=1.011;entryY=0.639;entryDx=0;entryDy=0;entryPerimeter=0;exitX=0.5;exitY=1;exitDx=0;exitDy=0;" parent="WIyWlLk6GJQsqaUBKTNV-1" source="EhMyjCA0RfJh-dZU2uRC-103" target="EhMyjCA0RfJh-dZU2uRC-92" edge="1">
          <mxGeometry relative="1" as="geometry" />
        </mxCell>
        <mxCell id="EhMyjCA0RfJh-dZU2uRC-108" value="&lt;font style=&quot;font-size: 14px;&quot;&gt;Yes&lt;/font&gt;" style="text;html=1;align=center;verticalAlign=middle;resizable=0;points=[];autosize=1;strokeColor=none;fillColor=none;labelBackgroundColor=none;" parent="WIyWlLk6GJQsqaUBKTNV-1" vertex="1">
          <mxGeometry x="353" y="1220" width="50" height="30" as="geometry" />
        </mxCell>
        <mxCell id="EhMyjCA0RfJh-dZU2uRC-110" value="&lt;font style=&quot;font-size: 14px;&quot;&gt;No&lt;/font&gt;" style="text;html=1;align=center;verticalAlign=middle;resizable=0;points=[];autosize=1;strokeColor=none;fillColor=none;labelBackgroundColor=none;" parent="WIyWlLk6GJQsqaUBKTNV-1" vertex="1">
          <mxGeometry x="450" y="1120" width="40" height="30" as="geometry" />
        </mxCell>
        <mxCell id="EhMyjCA0RfJh-dZU2uRC-111" value="&lt;font style=&quot;font-size: 14px;&quot;&gt;提前判断，减少延迟&lt;/font&gt;" style="text;html=1;align=center;verticalAlign=middle;whiteSpace=wrap;rounded=0;" parent="WIyWlLk6GJQsqaUBKTNV-1" vertex="1">
          <mxGeometry x="1061.5" y="80" width="130" height="30" as="geometry" />
        </mxCell>
        <mxCell id="EhMyjCA0RfJh-dZU2uRC-114" style="edgeStyle=orthogonalEdgeStyle;rounded=0;orthogonalLoop=1;jettySize=auto;html=1;entryX=0;entryY=0.25;entryDx=0;entryDy=0;dashed=1;dashPattern=12 12;" parent="WIyWlLk6GJQsqaUBKTNV-1" source="EhMyjCA0RfJh-dZU2uRC-112" target="JLzh3muklTevtN_WwJKW-45" edge="1">
          <mxGeometry relative="1" as="geometry" />
        </mxCell>
        <mxCell id="EhMyjCA0RfJh-dZU2uRC-112" value="&lt;span style=&quot;text-wrap: nowrap; font-size: 14px;&quot;&gt;&lt;font style=&quot;font-size: 14px;&quot;&gt;可选增加插队，优先加载，&lt;/font&gt;&lt;/span&gt;&lt;div style=&quot;font-size: 14px;&quot;&gt;&lt;span style=&quot;text-wrap: nowrap;&quot;&gt;&lt;font style=&quot;font-size: 14px;&quot;&gt;但有 data race，要考虑数据同步&amp;nbsp;&lt;/font&gt;&lt;/span&gt;&lt;br&gt;&lt;/div&gt;" style="rounded=0;whiteSpace=wrap;html=1;dashed=1;dashPattern=12 12;" parent="WIyWlLk6GJQsqaUBKTNV-1" vertex="1">
          <mxGeometry x="550" y="690" width="220" height="70" as="geometry" />
        </mxCell>
        <mxCell id="EhMyjCA0RfJh-dZU2uRC-113" value="" style="endArrow=classic;html=1;rounded=0;entryX=0;entryY=0.5;entryDx=0;entryDy=0;dashed=1;dashPattern=12 12;edgeStyle=orthogonalEdgeStyle;" parent="WIyWlLk6GJQsqaUBKTNV-1" target="EhMyjCA0RfJh-dZU2uRC-112" edge="1">
          <mxGeometry width="50" height="50" relative="1" as="geometry">
            <mxPoint x="350" y="725" as="sourcePoint" />
            <mxPoint x="700" y="730" as="targetPoint" />
          </mxGeometry>
        </mxCell>
        <mxCell id="EhMyjCA0RfJh-dZU2uRC-115" value="&lt;font style=&quot;font-size: 14px;&quot;&gt;Tile 更大？&lt;/font&gt;" style="text;html=1;align=center;verticalAlign=middle;whiteSpace=wrap;rounded=0;" parent="WIyWlLk6GJQsqaUBKTNV-1" vertex="1">
          <mxGeometry x="1060" y="110" width="130" height="30" as="geometry" />
        </mxCell>
        <mxCell id="EhMyjCA0RfJh-dZU2uRC-118" style="edgeStyle=orthogonalEdgeStyle;rounded=0;orthogonalLoop=1;jettySize=auto;html=1;entryX=0;entryY=0.5;entryDx=0;entryDy=0;" parent="WIyWlLk6GJQsqaUBKTNV-1" source="EhMyjCA0RfJh-dZU2uRC-116" target="EhMyjCA0RfJh-dZU2uRC-15" edge="1">
          <mxGeometry relative="1" as="geometry" />
        </mxCell>
        <mxCell id="EhMyjCA0RfJh-dZU2uRC-116" value="&lt;span style=&quot;text-wrap: nowrap; font-size: 14px;&quot;&gt;&lt;font style=&quot;font-size: 14px;&quot;&gt;可选增加插队，优先加载，&lt;/font&gt;&lt;/span&gt;&lt;div style=&quot;font-size: 14px;&quot;&gt;&lt;span style=&quot;text-wrap: nowrap;&quot;&gt;&lt;font style=&quot;font-size: 14px;&quot;&gt;但有 data race，要考虑数据同步&amp;nbsp;&lt;/font&gt;&lt;/span&gt;&lt;br&gt;&lt;/div&gt;" style="rounded=0;whiteSpace=wrap;html=1;dashed=1;dashPattern=12 12;" parent="WIyWlLk6GJQsqaUBKTNV-1" vertex="1">
          <mxGeometry x="240" y="355" width="210" height="70" as="geometry" />
        </mxCell>
        <mxCell id="EhMyjCA0RfJh-dZU2uRC-119" value="" style="endArrow=none;html=1;strokeWidth=2;rounded=0;exitX=1;exitY=0.5;exitDx=0;exitDy=0;entryX=0;entryY=0.5;entryDx=0;entryDy=0;dashed=1;dashPattern=1 2;" parent="WIyWlLk6GJQsqaUBKTNV-1" source="EhMyjCA0RfJh-dZU2uRC-100" target="EhMyjCA0RfJh-dZU2uRC-60" edge="1">
          <mxGeometry width="50" height="50" relative="1" as="geometry">
            <mxPoint x="750" y="980" as="sourcePoint" />
            <mxPoint x="800" y="930" as="targetPoint" />
          </mxGeometry>
        </mxCell>
        <mxCell id="EhMyjCA0RfJh-dZU2uRC-123" style="edgeStyle=orthogonalEdgeStyle;rounded=0;orthogonalLoop=1;jettySize=auto;html=1;entryX=0.5;entryY=1;entryDx=0;entryDy=0;exitX=0.5;exitY=1;exitDx=0;exitDy=0;" parent="WIyWlLk6GJQsqaUBKTNV-1" source="EhMyjCA0RfJh-dZU2uRC-121" target="JLzh3muklTevtN_WwJKW-44" edge="1">
          <mxGeometry relative="1" as="geometry" />
        </mxCell>
        <mxCell id="EhMyjCA0RfJh-dZU2uRC-121" value="Cache Needs Update" style="rounded=0;whiteSpace=wrap;html=1;labelBackgroundColor=none;" parent="WIyWlLk6GJQsqaUBKTNV-1" vertex="1">
          <mxGeometry x="437" y="120" width="113" height="60" as="geometry" />
        </mxCell>
        <mxCell id="EhMyjCA0RfJh-dZU2uRC-60" value="Execution Timer" style="rounded=1;whiteSpace=wrap;html=1;labelBackgroundColor=none;" parent="WIyWlLk6GJQsqaUBKTNV-1" vertex="1">
          <mxGeometry x="570" y="790" width="200" height="60" as="geometry" />
        </mxCell>
        <mxCell id="EhMyjCA0RfJh-dZU2uRC-61" value="A table&lt;br&gt;of the measured time for texture downloads of each size that could&lt;br&gt;potentially be performed based on clipmap and system configuration is generated at system start-up." style="swimlane;whiteSpace=wrap;html=1;startSize=130;labelBackgroundColor=none;" parent="WIyWlLk6GJQsqaUBKTNV-1" vertex="1">
          <mxGeometry x="567.88" y="850" width="204.25" height="200" as="geometry" />
        </mxCell>
        <mxCell id="EhMyjCA0RfJh-dZU2uRC-76" value="具体情况要考虑到设备io带宽" style="text;html=1;align=center;verticalAlign=middle;resizable=0;points=[];autosize=1;strokeColor=none;fillColor=none;labelBackgroundColor=none;" parent="EhMyjCA0RfJh-dZU2uRC-61" vertex="1">
          <mxGeometry x="12.120000000000001" y="145" width="180" height="30" as="geometry" />
        </mxCell>
        <mxCell id="_tXRpDgdrWqKt53TtMRj-0" value="" style="endArrow=none;html=1;strokeWidth=2;rounded=0;exitX=1;exitY=0.5;exitDx=0;exitDy=0;entryX=0;entryY=0.5;entryDx=0;entryDy=0;dashed=1;dashPattern=1 2;edgeStyle=orthogonalEdgeStyle;" edge="1" parent="WIyWlLk6GJQsqaUBKTNV-1" source="EhMyjCA0RfJh-dZU2uRC-60" target="EhMyjCA0RfJh-dZU2uRC-43">
          <mxGeometry width="50" height="50" relative="1" as="geometry">
            <mxPoint x="1020" y="1120" as="sourcePoint" />
            <mxPoint x="1156" y="1020" as="targetPoint" />
            <Array as="points">
              <mxPoint x="880" y="820" />
              <mxPoint x="880" y="1030" />
              <mxPoint x="1150" y="1030" />
              <mxPoint x="1150" y="890" />
            </Array>
          </mxGeometry>
        </mxCell>
      </root>
    </mxGraphModel>
  </diagram>
</mxfile>
